<svg xmlns="http://www.w3.org/2000/svg" viewBox="0 0 2630 626" width="2630pt" height="626pt" xmlns:xlink="http://www.w3.org/1999/xlink">
<g class="graph" id="graph1" transform="scale(1) rotate(0) translate(4 622)">
<title>Tree</title>
<polygon fill="white" stroke="white" points="-4,5 -4,-622 2627,-622 2627,5 -4,5"/>
<!-- 0 -->
<g class="node" id="node1"><title>0</title>
<polygon fill="none" stroke="black" points="1323.9,-617.7 1198.1,-617.7 1198.1,-542.3 1323.9,-542.3 1323.9,-617.7"/>
<text font-family="Times,serif" font-size="14px" text-anchor="middle" x="1261" y="-601">age &lt;= 50.5</text>
<text font-family="Times,serif" font-size="14px" text-anchor="middle" x="1261" y="-584.2">gini = 0.259</text>
<text font-family="Times,serif" font-size="14px" text-anchor="middle" x="1261" y="-567.4">samples = 2999</text>
<text font-family="Times,serif" font-size="14px" text-anchor="middle" x="1261" y="-550.6">value = [2540, 459]</text>
</g>
<!-- 1 -->
<g class="node" id="node2"><title>1</title>
<polygon fill="none" stroke="black" points="903.903,-505.7 778.097,-505.7 778.097,-430.3 903.903,-430.3 903.903,-505.7"/>
<text font-family="Times,serif" font-size="14px" text-anchor="middle" x="841" y="-489">sysBP &lt;= 150.25</text>
<text font-family="Times,serif" font-size="14px" text-anchor="middle" x="841" y="-472.2">gini = 0.162</text>
<text font-family="Times,serif" font-size="14px" text-anchor="middle" x="841" y="-455.4">samples = 1670</text>
<text font-family="Times,serif" font-size="14px" text-anchor="middle" x="841" y="-438.6">value = [1522, 148]</text>
</g>
<!-- 0&#45;&gt;1 -->
<g class="edge" id="edge2"><title>0-&gt;1</title>
<path fill="none" stroke="black" d="M 1197.67 -562.413 C 1121.63 -542.498 994.351 -509.163 914.181 -488.166"/>
<polygon fill="black" stroke="black" points="914.721,-484.69 904.161,-485.542 912.947,-491.462 914.721,-484.69"/>
<text font-family="Times,serif" font-size="14px" text-anchor="middle" x="916.783" y="-502.922">True</text>
</g>
<!-- 26 -->
<g class="node" id="node52"><title>26</title>
<polygon fill="none" stroke="black" points="1746.9,-505.7 1621.1,-505.7 1621.1,-430.3 1746.9,-430.3 1746.9,-505.7"/>
<text font-family="Times,serif" font-size="14px" text-anchor="middle" x="1684" y="-489">glucose &lt;= 122.5</text>
<text font-family="Times,serif" font-size="14px" text-anchor="middle" x="1684" y="-472.2">gini = 0.358</text>
<text font-family="Times,serif" font-size="14px" text-anchor="middle" x="1684" y="-455.4">samples = 1329</text>
<text font-family="Times,serif" font-size="14px" text-anchor="middle" x="1684" y="-438.6">value = [1018, 311]</text>
</g>
<!-- 0&#45;&gt;26 -->
<g class="edge" id="edge52"><title>0-&gt;26</title>
<path fill="none" stroke="black" d="M 1324.33 -562.532 C 1401.02 -542.588 1529.96 -509.059 1610.83 -488.029"/>
<polygon fill="black" stroke="black" points="1612.13,-491.305 1620.93,-485.401 1610.37,-484.53 1612.13,-491.305"/>
<text font-family="Times,serif" font-size="14px" text-anchor="middle" x="1608.27" y="-502.759">False</text>
</g>
<!-- 2 -->
<g class="node" id="node4"><title>2</title>
<polygon fill="none" stroke="black" points="555.903,-393.7 430.097,-393.7 430.097,-318.3 555.903,-318.3 555.903,-393.7"/>
<text font-family="Times,serif" font-size="14px" text-anchor="middle" x="493" y="-377">BMI &lt;= 39.09</text>
<text font-family="Times,serif" font-size="14px" text-anchor="middle" x="493" y="-360.2">gini = 0.141</text>
<text font-family="Times,serif" font-size="14px" text-anchor="middle" x="493" y="-343.4">samples = 1531</text>
<text font-family="Times,serif" font-size="14px" text-anchor="middle" x="493" y="-326.6">value = [1414, 117]</text>
</g>
<!-- 1&#45;&gt;2 -->
<g class="edge" id="edge4"><title>1-&gt;2</title>
<path fill="none" stroke="black" d="M 777.98 -447.08 C 718.299 -428.215 628.723 -399.901 565.971 -380.065"/>
<polygon fill="black" stroke="black" points="566.728,-376.634 556.138,-376.958 564.618,-383.309 566.728,-376.634"/>
</g>
<!-- 13 -->
<g class="node" id="node26"><title>13</title>
<polygon fill="none" stroke="black" points="899.195,-393.7 782.805,-393.7 782.805,-318.3 899.195,-318.3 899.195,-393.7"/>
<text font-family="Times,serif" font-size="14px" text-anchor="middle" x="841" y="-377">heartRate &lt;= 71.0</text>
<text font-family="Times,serif" font-size="14px" text-anchor="middle" x="841" y="-360.2">gini = 0.347</text>
<text font-family="Times,serif" font-size="14px" text-anchor="middle" x="841" y="-343.4">samples = 139</text>
<text font-family="Times,serif" font-size="14px" text-anchor="middle" x="841" y="-326.6">value = [108, 31]</text>
</g>
<!-- 1&#45;&gt;13 -->
<g class="edge" id="edge26"><title>1-&gt;13</title>
<path fill="none" stroke="black" d="M 841 -430.372 C 841 -421.927 841 -412.829 841 -404.011"/>
<polygon fill="black" stroke="black" points="844.5,-403.843 841,-393.844 837.5,-403.844 844.5,-403.843"/>
</g>
<!-- 3 -->
<g class="node" id="node6"><title>3</title>
<polygon fill="none" stroke="black" points="368.903,-281.7 243.097,-281.7 243.097,-206.3 368.903,-206.3 368.903,-281.7"/>
<text font-family="Times,serif" font-size="14px" text-anchor="middle" x="306" y="-265">totChol &lt;= 424.5</text>
<text font-family="Times,serif" font-size="14px" text-anchor="middle" x="306" y="-248.2">gini = 0.137</text>
<text font-family="Times,serif" font-size="14px" text-anchor="middle" x="306" y="-231.4">samples = 1524</text>
<text font-family="Times,serif" font-size="14px" text-anchor="middle" x="306" y="-214.6">value = [1411, 113]</text>
</g>
<!-- 2&#45;&gt;3 -->
<g class="edge" id="edge6"><title>2-&gt;3</title>
<path fill="none" stroke="black" d="M 430.732 -318.372 C 413.632 -308.313 394.957 -297.328 377.388 -286.993"/>
<polygon fill="black" stroke="black" points="378.709,-283.709 368.315,-281.656 375.16,-289.743 378.709,-283.709"/>
</g>
<!-- 8 -->
<g class="node" id="node16"><title>8</title>
<polygon fill="none" stroke="black" points="546.04,-281.7 439.96,-281.7 439.96,-206.3 546.04,-206.3 546.04,-281.7"/>
<text font-family="Times,serif" font-size="14px" text-anchor="middle" x="493" y="-265">glucose &lt;= 77.5</text>
<text font-family="Times,serif" font-size="14px" text-anchor="middle" x="493" y="-248.2">gini = 0.49</text>
<text font-family="Times,serif" font-size="14px" text-anchor="middle" x="493" y="-231.4">samples = 7</text>
<text font-family="Times,serif" font-size="14px" text-anchor="middle" x="493" y="-214.6">value = [3, 4]</text>
</g>
<!-- 2&#45;&gt;8 -->
<g class="edge" id="edge16"><title>2-&gt;8</title>
<path fill="none" stroke="black" d="M 493 -318.372 C 493 -309.927 493 -300.829 493 -292.011"/>
<polygon fill="black" stroke="black" points="496.5,-291.843 493,-281.844 489.5,-291.844 496.5,-291.843"/>
</g>
<!-- 4 -->
<g class="node" id="node8"><title>4</title>
<polygon fill="none" stroke="black" points="241.364,-169.7 114.636,-169.7 114.636,-94.2997 241.364,-94.2997 241.364,-169.7"/>
<text font-family="Times,serif" font-size="14px" text-anchor="middle" x="178" y="-153">cigsPerDay &lt;= 17.5</text>
<text font-family="Times,serif" font-size="14px" text-anchor="middle" x="178" y="-136.2">gini = 0.135</text>
<text font-family="Times,serif" font-size="14px" text-anchor="middle" x="178" y="-119.4">samples = 1522</text>
<text font-family="Times,serif" font-size="14px" text-anchor="middle" x="178" y="-102.6">value = [1411, 111]</text>
</g>
<!-- 3&#45;&gt;4 -->
<g class="edge" id="edge8"><title>3-&gt;4</title>
<path fill="none" stroke="black" d="M 263.378 -206.372 C 252.269 -196.825 240.189 -186.444 228.707 -176.576"/>
<polygon fill="black" stroke="black" points="230.738,-173.707 220.872,-169.844 226.175,-179.016 230.738,-173.707"/>
</g>
<!-- 7 -->
<g class="node" id="node14"><title>7</title>
<polygon fill="none" stroke="black" points="351.155,-161.401 260.845,-161.401 260.845,-102.599 351.155,-102.599 351.155,-161.401"/>
<text font-family="Times,serif" font-size="14px" text-anchor="middle" x="306" y="-144.6">gini = 0.0</text>
<text font-family="Times,serif" font-size="14px" text-anchor="middle" x="306" y="-127.8">samples = 2</text>
<text font-family="Times,serif" font-size="14px" text-anchor="middle" x="306" y="-111">value = [0, 2]</text>
</g>
<!-- 3&#45;&gt;7 -->
<g class="edge" id="edge14"><title>3-&gt;7</title>
<path fill="none" stroke="black" d="M 306 -206.372 C 306 -195.175 306 -182.83 306 -171.512"/>
<polygon fill="black" stroke="black" points="309.5,-171.469 306,-161.469 302.5,-171.469 309.5,-171.469"/>
</g>
<!-- 5 -->
<g class="node" id="node10"><title>5</title>
<polygon fill="none" stroke="black" points="111.903,-58.4014 0.0967954,-58.4014 0.0967954,0.401379 111.903,0.401379 111.903,-58.4014"/>
<text font-family="Times,serif" font-size="14px" text-anchor="middle" x="56" y="-41.6">gini = 0.099</text>
<text font-family="Times,serif" font-size="14px" text-anchor="middle" x="56" y="-24.8">samples = 992</text>
<text font-family="Times,serif" font-size="14px" text-anchor="middle" x="56" y="-8">value = [940, 52]</text>
</g>
<!-- 4&#45;&gt;5 -->
<g class="edge" id="edge10"><title>4-&gt;5</title>
<path fill="none" stroke="black" d="M 133.61 -94.251 C 121.985 -84.6272 109.489 -74.2822 97.9939 -64.7654"/>
<polygon fill="black" stroke="black" points="100.153,-62.0093 90.2183,-58.3283 95.6893,-67.4013 100.153,-62.0093"/>
</g>
<!-- 6 -->
<g class="node" id="node12"><title>6</title>
<polygon fill="none" stroke="black" points="242.903,-58.4014 131.097,-58.4014 131.097,0.401379 242.903,0.401379 242.903,-58.4014"/>
<text font-family="Times,serif" font-size="14px" text-anchor="middle" x="187" y="-41.6">gini = 0.198</text>
<text font-family="Times,serif" font-size="14px" text-anchor="middle" x="187" y="-24.8">samples = 530</text>
<text font-family="Times,serif" font-size="14px" text-anchor="middle" x="187" y="-8">value = [471, 59]</text>
</g>
<!-- 4&#45;&gt;6 -->
<g class="edge" id="edge12"><title>4-&gt;6</title>
<path fill="none" stroke="black" d="M 181.275 -94.251 C 182.025 -85.8302 182.825 -76.8572 183.581 -68.37"/>
<polygon fill="black" stroke="black" points="187.074,-68.5995 184.476,-58.3283 180.102,-67.9781 187.074,-68.5995"/>
</g>
<!-- 9 -->
<g class="node" id="node18"><title>9</title>
<polygon fill="none" stroke="black" points="482.223,-169.7 369.777,-169.7 369.777,-94.2997 482.223,-94.2997 482.223,-169.7"/>
<text font-family="Times,serif" font-size="14px" text-anchor="middle" x="426" y="-153">totChol &lt;= 219.5</text>
<text font-family="Times,serif" font-size="14px" text-anchor="middle" x="426" y="-136.2">gini = 0.375</text>
<text font-family="Times,serif" font-size="14px" text-anchor="middle" x="426" y="-119.4">samples = 4</text>
<text font-family="Times,serif" font-size="14px" text-anchor="middle" x="426" y="-102.6">value = [3, 1]</text>
</g>
<!-- 8&#45;&gt;9 -->
<g class="edge" id="edge18"><title>8-&gt;9</title>
<path fill="none" stroke="black" d="M 470.69 -206.372 C 465.267 -197.468 459.401 -187.838 453.76 -178.575"/>
<polygon fill="black" stroke="black" points="456.632,-176.563 448.441,-169.844 450.654,-180.205 456.632,-176.563"/>
</g>
<!-- 12 -->
<g class="node" id="node24"><title>12</title>
<polygon fill="none" stroke="black" points="591.155,-161.401 500.845,-161.401 500.845,-102.599 591.155,-102.599 591.155,-161.401"/>
<text font-family="Times,serif" font-size="14px" text-anchor="middle" x="546" y="-144.6">gini = 0.0</text>
<text font-family="Times,serif" font-size="14px" text-anchor="middle" x="546" y="-127.8">samples = 3</text>
<text font-family="Times,serif" font-size="14px" text-anchor="middle" x="546" y="-111">value = [0, 3]</text>
</g>
<!-- 8&#45;&gt;12 -->
<g class="edge" id="edge24"><title>8-&gt;12</title>
<path fill="none" stroke="black" d="M 510.648 -206.372 C 516.153 -194.946 522.234 -182.326 527.778 -170.82"/>
<polygon fill="black" stroke="black" points="531.096,-171.997 532.283,-161.469 524.79,-168.958 531.096,-171.997"/>
</g>
<!-- 10 -->
<g class="node" id="node20"><title>10</title>
<polygon fill="none" stroke="black" points="367.155,-58.4014 276.845,-58.4014 276.845,0.401379 367.155,0.401379 367.155,-58.4014"/>
<text font-family="Times,serif" font-size="14px" text-anchor="middle" x="322" y="-41.6">gini = 0.0</text>
<text font-family="Times,serif" font-size="14px" text-anchor="middle" x="322" y="-24.8">samples = 1</text>
<text font-family="Times,serif" font-size="14px" text-anchor="middle" x="322" y="-8">value = [0, 1]</text>
</g>
<!-- 9&#45;&gt;10 -->
<g class="edge" id="edge20"><title>9-&gt;10</title>
<path fill="none" stroke="black" d="M 388.159 -94.251 C 378.44 -84.8123 368.007 -74.6798 358.364 -65.3154"/>
<polygon fill="black" stroke="black" points="360.782,-62.7843 351.17,-58.3283 355.905,-67.806 360.782,-62.7843"/>
</g>
<!-- 11 -->
<g class="node" id="node22"><title>11</title>
<polygon fill="none" stroke="black" points="477.155,-58.4014 386.845,-58.4014 386.845,0.401379 477.155,0.401379 477.155,-58.4014"/>
<text font-family="Times,serif" font-size="14px" text-anchor="middle" x="432" y="-41.6">gini = 0.0</text>
<text font-family="Times,serif" font-size="14px" text-anchor="middle" x="432" y="-24.8">samples = 3</text>
<text font-family="Times,serif" font-size="14px" text-anchor="middle" x="432" y="-8">value = [3, 0]</text>
</g>
<!-- 9&#45;&gt;11 -->
<g class="edge" id="edge22"><title>9-&gt;11</title>
<path fill="none" stroke="black" d="M 428.183 -94.251 C 428.683 -85.8302 429.216 -76.8572 429.721 -68.37"/>
<polygon fill="black" stroke="black" points="433.218,-68.5183 430.317,-58.3283 426.23,-68.1031 433.218,-68.5183"/>
</g>
<!-- 14 -->
<g class="node" id="node28"><title>14</title>
<polygon fill="none" stroke="black" points="829.154,-281.7 724.846,-281.7 724.846,-206.3 829.154,-206.3 829.154,-281.7"/>
<text font-family="Times,serif" font-size="14px" text-anchor="middle" x="777" y="-265">BMI &lt;= 25.545</text>
<text font-family="Times,serif" font-size="14px" text-anchor="middle" x="777" y="-248.2">gini = 0.5</text>
<text font-family="Times,serif" font-size="14px" text-anchor="middle" x="777" y="-231.4">samples = 24</text>
<text font-family="Times,serif" font-size="14px" text-anchor="middle" x="777" y="-214.6">value = [12, 12]</text>
</g>
<!-- 13&#45;&gt;14 -->
<g class="edge" id="edge28"><title>13-&gt;14</title>
<path fill="none" stroke="black" d="M 819.689 -318.372 C 814.508 -309.468 808.906 -299.838 803.517 -290.575"/>
<polygon fill="black" stroke="black" points="806.49,-288.727 798.436,-281.844 800.44,-292.247 806.49,-288.727"/>
</g>
<!-- 21 -->
<g class="node" id="node42"><title>21</title>
<polygon fill="none" stroke="black" points="960.223,-281.7 847.777,-281.7 847.777,-206.3 960.223,-206.3 960.223,-281.7"/>
<text font-family="Times,serif" font-size="14px" text-anchor="middle" x="904" y="-265">totChol &lt;= 162.0</text>
<text font-family="Times,serif" font-size="14px" text-anchor="middle" x="904" y="-248.2">gini = 0.276</text>
<text font-family="Times,serif" font-size="14px" text-anchor="middle" x="904" y="-231.4">samples = 115</text>
<text font-family="Times,serif" font-size="14px" text-anchor="middle" x="904" y="-214.6">value = [96, 19]</text>
</g>
<!-- 13&#45;&gt;21 -->
<g class="edge" id="edge42"><title>13-&gt;21</title>
<path fill="none" stroke="black" d="M 861.978 -318.372 C 867.078 -309.468 872.593 -299.838 877.898 -290.575"/>
<polygon fill="black" stroke="black" points="880.966,-292.261 882.899,-281.844 874.892,-288.782 880.966,-292.261"/>
</g>
<!-- 15 -->
<g class="node" id="node30"><title>15</title>
<polygon fill="none" stroke="black" points="707.138,-169.7 610.862,-169.7 610.862,-94.2997 707.138,-94.2997 707.138,-169.7"/>
<text font-family="Times,serif" font-size="14px" text-anchor="middle" x="659" y="-153">diaBP &lt;= 88.0</text>
<text font-family="Times,serif" font-size="14px" text-anchor="middle" x="659" y="-136.2">gini = 0.278</text>
<text font-family="Times,serif" font-size="14px" text-anchor="middle" x="659" y="-119.4">samples = 6</text>
<text font-family="Times,serif" font-size="14px" text-anchor="middle" x="659" y="-102.6">value = [1, 5]</text>
</g>
<!-- 14&#45;&gt;15 -->
<g class="edge" id="edge30"><title>14-&gt;15</title>
<path fill="none" stroke="black" d="M 737.708 -206.372 C 727.565 -196.917 716.545 -186.644 706.051 -176.861"/>
<polygon fill="black" stroke="black" points="708.224,-174.102 698.523,-169.844 703.451,-179.222 708.224,-174.102"/>
</g>
<!-- 18 -->
<g class="node" id="node36"><title>18</title>
<polygon fill="none" stroke="black" points="832.04,-169.7 725.96,-169.7 725.96,-94.2997 832.04,-94.2997 832.04,-169.7"/>
<text font-family="Times,serif" font-size="14px" text-anchor="middle" x="779" y="-153">glucose &lt;= 65.0</text>
<text font-family="Times,serif" font-size="14px" text-anchor="middle" x="779" y="-136.2">gini = 0.475</text>
<text font-family="Times,serif" font-size="14px" text-anchor="middle" x="779" y="-119.4">samples = 18</text>
<text font-family="Times,serif" font-size="14px" text-anchor="middle" x="779" y="-102.6">value = [11, 7]</text>
</g>
<!-- 14&#45;&gt;18 -->
<g class="edge" id="edge36"><title>14-&gt;18</title>
<path fill="none" stroke="black" d="M 777.666 -206.372 C 777.82 -197.927 777.985 -188.829 778.145 -180.011"/>
<polygon fill="black" stroke="black" points="781.648,-179.906 778.33,-169.844 774.649,-179.778 781.648,-179.906"/>
</g>
<!-- 16 -->
<g class="node" id="node32"><title>16</title>
<polygon fill="none" stroke="black" points="594.155,-58.4014 503.845,-58.4014 503.845,0.401379 594.155,0.401379 594.155,-58.4014"/>
<text font-family="Times,serif" font-size="14px" text-anchor="middle" x="549" y="-41.6">gini = 0.0</text>
<text font-family="Times,serif" font-size="14px" text-anchor="middle" x="549" y="-24.8">samples = 1</text>
<text font-family="Times,serif" font-size="14px" text-anchor="middle" x="549" y="-8">value = [1, 0]</text>
</g>
<!-- 15&#45;&gt;16 -->
<g class="edge" id="edge32"><title>15-&gt;16</title>
<path fill="none" stroke="black" d="M 618.976 -94.251 C 608.697 -84.8123 597.661 -74.6798 587.462 -65.3154"/>
<polygon fill="black" stroke="black" points="589.586,-62.5135 579.853,-58.3283 584.851,-67.6697 589.586,-62.5135"/>
</g>
<!-- 17 -->
<g class="node" id="node34"><title>17</title>
<polygon fill="none" stroke="black" points="704.155,-58.4014 613.845,-58.4014 613.845,0.401379 704.155,0.401379 704.155,-58.4014"/>
<text font-family="Times,serif" font-size="14px" text-anchor="middle" x="659" y="-41.6">gini = 0.0</text>
<text font-family="Times,serif" font-size="14px" text-anchor="middle" x="659" y="-24.8">samples = 5</text>
<text font-family="Times,serif" font-size="14px" text-anchor="middle" x="659" y="-8">value = [0, 5]</text>
</g>
<!-- 15&#45;&gt;17 -->
<g class="edge" id="edge34"><title>15-&gt;17</title>
<path fill="none" stroke="black" d="M 659 -94.251 C 659 -85.8302 659 -76.8572 659 -68.37"/>
<polygon fill="black" stroke="black" points="662.5,-68.3283 659,-58.3283 655.5,-68.3283 662.5,-68.3283"/>
</g>
<!-- 19 -->
<g class="node" id="node38"><title>19</title>
<polygon fill="none" stroke="black" points="814.155,-58.4014 723.845,-58.4014 723.845,0.401379 814.155,0.401379 814.155,-58.4014"/>
<text font-family="Times,serif" font-size="14px" text-anchor="middle" x="769" y="-41.6">gini = 0.0</text>
<text font-family="Times,serif" font-size="14px" text-anchor="middle" x="769" y="-24.8">samples = 2</text>
<text font-family="Times,serif" font-size="14px" text-anchor="middle" x="769" y="-8">value = [0, 2]</text>
</g>
<!-- 18&#45;&gt;19 -->
<g class="edge" id="edge38"><title>18-&gt;19</title>
<path fill="none" stroke="black" d="M 775.361 -94.251 C 774.528 -85.8302 773.639 -76.8572 772.799 -68.37"/>
<polygon fill="black" stroke="black" points="776.273,-67.9348 771.805,-58.3283 769.307,-68.6245 776.273,-67.9348"/>
</g>
<!-- 20 -->
<g class="node" id="node40"><title>20</title>
<polygon fill="none" stroke="black" points="930.903,-58.4014 833.097,-58.4014 833.097,0.401379 930.903,0.401379 930.903,-58.4014"/>
<text font-family="Times,serif" font-size="14px" text-anchor="middle" x="882" y="-41.6">gini = 0.43</text>
<text font-family="Times,serif" font-size="14px" text-anchor="middle" x="882" y="-24.8">samples = 16</text>
<text font-family="Times,serif" font-size="14px" text-anchor="middle" x="882" y="-8">value = [11, 5]</text>
</g>
<!-- 18&#45;&gt;20 -->
<g class="edge" id="edge40"><title>18-&gt;20</title>
<path fill="none" stroke="black" d="M 816.477 -94.251 C 826.008 -84.9048 836.233 -74.8784 845.704 -65.591"/>
<polygon fill="black" stroke="black" points="848.421,-67.8288 853.111,-58.3283 843.52,-62.8307 848.421,-67.8288"/>
</g>
<!-- 22 -->
<g class="node" id="node44"><title>22</title>
<polygon fill="none" stroke="black" points="944.155,-161.401 853.845,-161.401 853.845,-102.599 944.155,-102.599 944.155,-161.401"/>
<text font-family="Times,serif" font-size="14px" text-anchor="middle" x="899" y="-144.6">gini = 0.0</text>
<text font-family="Times,serif" font-size="14px" text-anchor="middle" x="899" y="-127.8">samples = 2</text>
<text font-family="Times,serif" font-size="14px" text-anchor="middle" x="899" y="-111">value = [0, 2]</text>
</g>
<!-- 21&#45;&gt;22 -->
<g class="edge" id="edge44"><title>21-&gt;22</title>
<path fill="none" stroke="black" d="M 902.335 -206.372 C 901.826 -195.175 901.265 -182.83 900.751 -171.512"/>
<polygon fill="black" stroke="black" points="904.245,-171.299 900.294,-161.469 897.252,-171.617 904.245,-171.299"/>
</g>
<!-- 23 -->
<g class="node" id="node46"><title>23</title>
<polygon fill="none" stroke="black" points="1068.15,-169.7 963.846,-169.7 963.846,-94.2997 1068.15,-94.2997 1068.15,-169.7"/>
<text font-family="Times,serif" font-size="14px" text-anchor="middle" x="1016" y="-153">male &lt;= 0.5</text>
<text font-family="Times,serif" font-size="14px" text-anchor="middle" x="1016" y="-136.2">gini = 0.256</text>
<text font-family="Times,serif" font-size="14px" text-anchor="middle" x="1016" y="-119.4">samples = 113</text>
<text font-family="Times,serif" font-size="14px" text-anchor="middle" x="1016" y="-102.6">value = [96, 17]</text>
</g>
<!-- 21&#45;&gt;23 -->
<g class="edge" id="edge46"><title>21-&gt;23</title>
<path fill="none" stroke="black" d="M 941.294 -206.372 C 950.921 -196.917 961.381 -186.644 971.341 -176.861"/>
<polygon fill="black" stroke="black" points="973.805,-179.348 978.487,-169.844 968.9,-174.354 973.805,-179.348"/>
</g>
<!-- 24 -->
<g class="node" id="node48"><title>24</title>
<polygon fill="none" stroke="black" points="1047.9,-58.4014 950.097,-58.4014 950.097,0.401379 1047.9,0.401379 1047.9,-58.4014"/>
<text font-family="Times,serif" font-size="14px" text-anchor="middle" x="999" y="-41.6">gini = 0.117</text>
<text font-family="Times,serif" font-size="14px" text-anchor="middle" x="999" y="-24.8">samples = 64</text>
<text font-family="Times,serif" font-size="14px" text-anchor="middle" x="999" y="-8">value = [60, 4]</text>
</g>
<!-- 23&#45;&gt;24 -->
<g class="edge" id="edge48"><title>23-&gt;24</title>
<path fill="none" stroke="black" d="M 1009.81 -94.251 C 1008.4 -85.8302 1006.89 -76.8572 1005.46 -68.37"/>
<polygon fill="black" stroke="black" points="1008.88,-67.6086 1003.77,-58.3283 1001.98,-68.7706 1008.88,-67.6086"/>
</g>
<!-- 25 -->
<g class="node" id="node50"><title>25</title>
<polygon fill="none" stroke="black" points="1171.15,-58.4014 1066.85,-58.4014 1066.85,0.401379 1171.15,0.401379 1171.15,-58.4014"/>
<text font-family="Times,serif" font-size="14px" text-anchor="middle" x="1119" y="-41.6">gini = 0.39</text>
<text font-family="Times,serif" font-size="14px" text-anchor="middle" x="1119" y="-24.8">samples = 49</text>
<text font-family="Times,serif" font-size="14px" text-anchor="middle" x="1119" y="-8">value = [36, 13]</text>
</g>
<!-- 23&#45;&gt;25 -->
<g class="edge" id="edge50"><title>23-&gt;25</title>
<path fill="none" stroke="black" d="M 1053.48 -94.251 C 1063.01 -84.9048 1073.23 -74.8784 1082.7 -65.591"/>
<polygon fill="black" stroke="black" points="1085.42,-67.8288 1090.11,-58.3283 1080.52,-62.8307 1085.42,-67.8288"/>
</g>
<!-- 27 -->
<g class="node" id="node54"><title>27</title>
<polygon fill="none" stroke="black" points="1743.15,-393.7 1624.85,-393.7 1624.85,-318.3 1743.15,-318.3 1743.15,-393.7"/>
<text font-family="Times,serif" font-size="14px" text-anchor="middle" x="1684" y="-377">sysBP &lt;= 143.75</text>
<text font-family="Times,serif" font-size="14px" text-anchor="middle" x="1684" y="-360.2">gini = 0.341</text>
<text font-family="Times,serif" font-size="14px" text-anchor="middle" x="1684" y="-343.4">samples = 1277</text>
<text font-family="Times,serif" font-size="14px" text-anchor="middle" x="1684" y="-326.6">value = [998, 279]</text>
</g>
<!-- 26&#45;&gt;27 -->
<g class="edge" id="edge54"><title>26-&gt;27</title>
<path fill="none" stroke="black" d="M 1684 -430.372 C 1684 -421.927 1684 -412.829 1684 -404.011"/>
<polygon fill="black" stroke="black" points="1687.5,-403.843 1684,-393.844 1680.5,-403.844 1687.5,-403.843"/>
</g>
<!-- 42 -->
<g class="node" id="node84"><title>42</title>
<polygon fill="none" stroke="black" points="2213.15,-393.7 2108.85,-393.7 2108.85,-318.3 2213.15,-318.3 2213.15,-393.7"/>
<text font-family="Times,serif" font-size="14px" text-anchor="middle" x="2161" y="-377">age &lt;= 53.5</text>
<text font-family="Times,serif" font-size="14px" text-anchor="middle" x="2161" y="-360.2">gini = 0.473</text>
<text font-family="Times,serif" font-size="14px" text-anchor="middle" x="2161" y="-343.4">samples = 52</text>
<text font-family="Times,serif" font-size="14px" text-anchor="middle" x="2161" y="-326.6">value = [20, 32]</text>
</g>
<!-- 26&#45;&gt;42 -->
<g class="edge" id="edge84"><title>26-&gt;42</title>
<path fill="none" stroke="black" d="M 1747.34 -452.393 C 1839.06 -431.241 2007.82 -392.325 2098.86 -371.33"/>
<polygon fill="black" stroke="black" points="2099.81,-374.704 2108.76,-369.046 2098.23,-367.883 2099.81,-374.704"/>
</g>
<!-- 28 -->
<g class="node" id="node56"><title>28</title>
<polygon fill="none" stroke="black" points="1622.15,-281.7 1503.85,-281.7 1503.85,-206.3 1622.15,-206.3 1622.15,-281.7"/>
<text font-family="Times,serif" font-size="14px" text-anchor="middle" x="1563" y="-265">male &lt;= 0.5</text>
<text font-family="Times,serif" font-size="14px" text-anchor="middle" x="1563" y="-248.2">gini = 0.286</text>
<text font-family="Times,serif" font-size="14px" text-anchor="middle" x="1563" y="-231.4">samples = 794</text>
<text font-family="Times,serif" font-size="14px" text-anchor="middle" x="1563" y="-214.6">value = [657, 137]</text>
</g>
<!-- 27&#45;&gt;28 -->
<g class="edge" id="edge56"><title>27-&gt;28</title>
<path fill="none" stroke="black" d="M 1643.71 -318.372 C 1633.21 -308.825 1621.79 -298.444 1610.93 -288.576"/>
<polygon fill="black" stroke="black" points="1613.28,-285.98 1603.53,-281.844 1608.57,-291.16 1613.28,-285.98"/>
</g>
<!-- 35 -->
<g class="node" id="node70"><title>35</title>
<polygon fill="none" stroke="black" points="1877.36,-281.7 1750.64,-281.7 1750.64,-206.3 1877.36,-206.3 1877.36,-281.7"/>
<text font-family="Times,serif" font-size="14px" text-anchor="middle" x="1814" y="-265">cigsPerDay &lt;= 12.5</text>
<text font-family="Times,serif" font-size="14px" text-anchor="middle" x="1814" y="-248.2">gini = 0.415</text>
<text font-family="Times,serif" font-size="14px" text-anchor="middle" x="1814" y="-231.4">samples = 483</text>
<text font-family="Times,serif" font-size="14px" text-anchor="middle" x="1814" y="-214.6">value = [341, 142]</text>
</g>
<!-- 27&#45;&gt;35 -->
<g class="edge" id="edge70"><title>27-&gt;35</title>
<path fill="none" stroke="black" d="M 1727.29 -318.372 C 1738.57 -308.825 1750.84 -298.444 1762.5 -288.576"/>
<polygon fill="black" stroke="black" points="1765.08,-290.975 1770.46,-281.844 1760.56,-285.631 1765.08,-290.975"/>
</g>
<!-- 29 -->
<g class="node" id="node58"><title>29</title>
<polygon fill="none" stroke="black" points="1425.9,-169.7 1314.1,-169.7 1314.1,-94.2997 1425.9,-94.2997 1425.9,-169.7"/>
<text font-family="Times,serif" font-size="14px" text-anchor="middle" x="1370" y="-153">BMI &lt;= 33.05</text>
<text font-family="Times,serif" font-size="14px" text-anchor="middle" x="1370" y="-136.2">gini = 0.225</text>
<text font-family="Times,serif" font-size="14px" text-anchor="middle" x="1370" y="-119.4">samples = 419</text>
<text font-family="Times,serif" font-size="14px" text-anchor="middle" x="1370" y="-102.6">value = [365, 54]</text>
</g>
<!-- 28&#45;&gt;29 -->
<g class="edge" id="edge58"><title>28-&gt;29</title>
<path fill="none" stroke="black" d="M 1503.78 -209.249 C 1481.97 -196.816 1457.15 -182.671 1434.86 -169.969"/>
<polygon fill="black" stroke="black" points="1436.56,-166.905 1426.14,-164.994 1433.09,-172.987 1436.56,-166.905"/>
</g>
<!-- 32 -->
<g class="node" id="node64"><title>32</title>
<polygon fill="none" stroke="black" points="1618.9,-169.7 1507.1,-169.7 1507.1,-94.2997 1618.9,-94.2997 1618.9,-169.7"/>
<text font-family="Times,serif" font-size="14px" text-anchor="middle" x="1563" y="-153">sysBP &lt;= 122.75</text>
<text font-family="Times,serif" font-size="14px" text-anchor="middle" x="1563" y="-136.2">gini = 0.345</text>
<text font-family="Times,serif" font-size="14px" text-anchor="middle" x="1563" y="-119.4">samples = 375</text>
<text font-family="Times,serif" font-size="14px" text-anchor="middle" x="1563" y="-102.6">value = [292, 83]</text>
</g>
<!-- 28&#45;&gt;32 -->
<g class="edge" id="edge64"><title>28-&gt;32</title>
<path fill="none" stroke="black" d="M 1563 -206.372 C 1563 -197.927 1563 -188.829 1563 -180.011"/>
<polygon fill="black" stroke="black" points="1566.5,-179.843 1563,-169.844 1559.5,-179.844 1566.5,-179.843"/>
</g>
<!-- 30 -->
<g class="node" id="node60"><title>30</title>
<polygon fill="none" stroke="black" points="1301.9,-58.4014 1190.1,-58.4014 1190.1,0.401379 1301.9,0.401379 1301.9,-58.4014"/>
<text font-family="Times,serif" font-size="14px" text-anchor="middle" x="1246" y="-41.6">gini = 0.207</text>
<text font-family="Times,serif" font-size="14px" text-anchor="middle" x="1246" y="-24.8">samples = 400</text>
<text font-family="Times,serif" font-size="14px" text-anchor="middle" x="1246" y="-8">value = [353, 47]</text>
</g>
<!-- 29&#45;&gt;30 -->
<g class="edge" id="edge60"><title>29-&gt;30</title>
<path fill="none" stroke="black" d="M 1324.88 -94.251 C 1313.07 -84.6272 1300.37 -74.2822 1288.68 -64.7654"/>
<polygon fill="black" stroke="black" points="1290.74,-61.9299 1280.78,-58.3283 1286.32,-67.3574 1290.74,-61.9299"/>
</g>
<!-- 31 -->
<g class="node" id="node62"><title>31</title>
<polygon fill="none" stroke="black" points="1418.9,-58.4014 1321.1,-58.4014 1321.1,0.401379 1418.9,0.401379 1418.9,-58.4014"/>
<text font-family="Times,serif" font-size="14px" text-anchor="middle" x="1370" y="-41.6">gini = 0.465</text>
<text font-family="Times,serif" font-size="14px" text-anchor="middle" x="1370" y="-24.8">samples = 19</text>
<text font-family="Times,serif" font-size="14px" text-anchor="middle" x="1370" y="-8">value = [12, 7]</text>
</g>
<!-- 29&#45;&gt;31 -->
<g class="edge" id="edge62"><title>29-&gt;31</title>
<path fill="none" stroke="black" d="M 1370 -94.251 C 1370 -85.8302 1370 -76.8572 1370 -68.37"/>
<polygon fill="black" stroke="black" points="1373.5,-68.3283 1370,-58.3283 1366.5,-68.3283 1373.5,-68.3283"/>
</g>
<!-- 33 -->
<g class="node" id="node66"><title>33</title>
<polygon fill="none" stroke="black" points="1549.9,-58.4014 1438.1,-58.4014 1438.1,0.401379 1549.9,0.401379 1549.9,-58.4014"/>
<text font-family="Times,serif" font-size="14px" text-anchor="middle" x="1494" y="-41.6">gini = 0.249</text>
<text font-family="Times,serif" font-size="14px" text-anchor="middle" x="1494" y="-24.8">samples = 158</text>
<text font-family="Times,serif" font-size="14px" text-anchor="middle" x="1494" y="-8">value = [135, 23]</text>
</g>
<!-- 32&#45;&gt;33 -->
<g class="edge" id="edge66"><title>32-&gt;33</title>
<path fill="none" stroke="black" d="M 1537.89 -94.251 C 1531.76 -85.2749 1525.2 -75.6715 1519.07 -66.6979"/>
<polygon fill="black" stroke="black" points="1521.88,-64.611 1513.35,-58.3283 1516.1,-68.5598 1521.88,-64.611"/>
</g>
<!-- 34 -->
<g class="node" id="node68"><title>34</title>
<polygon fill="none" stroke="black" points="1680.9,-58.4014 1569.1,-58.4014 1569.1,0.401379 1680.9,0.401379 1680.9,-58.4014"/>
<text font-family="Times,serif" font-size="14px" text-anchor="middle" x="1625" y="-41.6">gini = 0.4</text>
<text font-family="Times,serif" font-size="14px" text-anchor="middle" x="1625" y="-24.8">samples = 217</text>
<text font-family="Times,serif" font-size="14px" text-anchor="middle" x="1625" y="-8">value = [157, 60]</text>
</g>
<!-- 32&#45;&gt;34 -->
<g class="edge" id="edge68"><title>32-&gt;34</title>
<path fill="none" stroke="black" d="M 1585.56 -94.251 C 1591.01 -85.3675 1596.84 -75.8695 1602.3 -66.9756"/>
<polygon fill="black" stroke="black" points="1605.36,-68.6817 1607.61,-58.3283 1599.4,-65.0196 1605.36,-68.6817"/>
</g>
<!-- 36 -->
<g class="node" id="node72"><title>36</title>
<polygon fill="none" stroke="black" points="1869.9,-169.7 1758.1,-169.7 1758.1,-94.2997 1869.9,-94.2997 1869.9,-169.7"/>
<text font-family="Times,serif" font-size="14px" text-anchor="middle" x="1814" y="-153">sysBP &lt;= 213.5</text>
<text font-family="Times,serif" font-size="14px" text-anchor="middle" x="1814" y="-136.2">gini = 0.37</text>
<text font-family="Times,serif" font-size="14px" text-anchor="middle" x="1814" y="-119.4">samples = 375</text>
<text font-family="Times,serif" font-size="14px" text-anchor="middle" x="1814" y="-102.6">value = [283, 92]</text>
</g>
<!-- 35&#45;&gt;36 -->
<g class="edge" id="edge72"><title>35-&gt;36</title>
<path fill="none" stroke="black" d="M 1814 -206.372 C 1814 -197.927 1814 -188.829 1814 -180.011"/>
<polygon fill="black" stroke="black" points="1817.5,-179.843 1814,-169.844 1810.5,-179.844 1817.5,-179.843"/>
</g>
<!-- 39 -->
<g class="node" id="node78"><title>39</title>
<polygon fill="none" stroke="black" points="2044.04,-169.7 1937.96,-169.7 1937.96,-94.2997 2044.04,-94.2997 2044.04,-169.7"/>
<text font-family="Times,serif" font-size="14px" text-anchor="middle" x="1991" y="-153">glucose &lt;= 75.5</text>
<text font-family="Times,serif" font-size="14px" text-anchor="middle" x="1991" y="-136.2">gini = 0.497</text>
<text font-family="Times,serif" font-size="14px" text-anchor="middle" x="1991" y="-119.4">samples = 108</text>
<text font-family="Times,serif" font-size="14px" text-anchor="middle" x="1991" y="-102.6">value = [58, 50]</text>
</g>
<!-- 35&#45;&gt;39 -->
<g class="edge" id="edge78"><title>35-&gt;39</title>
<path fill="none" stroke="black" d="M 1872.94 -206.372 C 1891 -195.146 1910.92 -182.768 1929.17 -171.426"/>
<polygon fill="black" stroke="black" points="1931.33,-174.202 1937.98,-165.951 1927.64,-168.257 1931.33,-174.202"/>
</g>
<!-- 37 -->
<g class="node" id="node74"><title>37</title>
<polygon fill="none" stroke="black" points="1811.9,-58.4014 1700.1,-58.4014 1700.1,0.401379 1811.9,0.401379 1811.9,-58.4014"/>
<text font-family="Times,serif" font-size="14px" text-anchor="middle" x="1756" y="-41.6">gini = 0.36</text>
<text font-family="Times,serif" font-size="14px" text-anchor="middle" x="1756" y="-24.8">samples = 369</text>
<text font-family="Times,serif" font-size="14px" text-anchor="middle" x="1756" y="-8">value = [282, 87]</text>
</g>
<!-- 36&#45;&gt;37 -->
<g class="edge" id="edge74"><title>36-&gt;37</title>
<path fill="none" stroke="black" d="M 1792.9 -94.251 C 1787.85 -85.46 1782.45 -76.0673 1777.39 -67.2537"/>
<polygon fill="black" stroke="black" points="1780.28,-65.2572 1772.27,-58.3283 1774.21,-68.7431 1780.28,-65.2572"/>
</g>
<!-- 38 -->
<g class="node" id="node76"><title>38</title>
<polygon fill="none" stroke="black" points="1921.15,-58.4014 1830.85,-58.4014 1830.85,0.401379 1921.15,0.401379 1921.15,-58.4014"/>
<text font-family="Times,serif" font-size="14px" text-anchor="middle" x="1876" y="-41.6">gini = 0.278</text>
<text font-family="Times,serif" font-size="14px" text-anchor="middle" x="1876" y="-24.8">samples = 6</text>
<text font-family="Times,serif" font-size="14px" text-anchor="middle" x="1876" y="-8">value = [1, 5]</text>
</g>
<!-- 36&#45;&gt;38 -->
<g class="edge" id="edge76"><title>36-&gt;38</title>
<path fill="none" stroke="black" d="M 1836.56 -94.251 C 1842.01 -85.3675 1847.84 -75.8695 1853.3 -66.9756"/>
<polygon fill="black" stroke="black" points="1856.36,-68.6817 1858.61,-58.3283 1850.4,-65.0196 1856.36,-68.6817"/>
</g>
<!-- 40 -->
<g class="node" id="node80"><title>40</title>
<polygon fill="none" stroke="black" points="2045.15,-58.4014 1940.85,-58.4014 1940.85,0.401379 2045.15,0.401379 2045.15,-58.4014"/>
<text font-family="Times,serif" font-size="14px" text-anchor="middle" x="1993" y="-41.6">gini = 0.413</text>
<text font-family="Times,serif" font-size="14px" text-anchor="middle" x="1993" y="-24.8">samples = 48</text>
<text font-family="Times,serif" font-size="14px" text-anchor="middle" x="1993" y="-8">value = [34, 14]</text>
</g>
<!-- 39&#45;&gt;40 -->
<g class="edge" id="edge80"><title>39-&gt;40</title>
<path fill="none" stroke="black" d="M 1991.73 -94.251 C 1991.89 -85.8302 1992.07 -76.8572 1992.24 -68.37"/>
<polygon fill="black" stroke="black" points="1995.74,-68.3957 1992.44,-58.3283 1988.74,-68.257 1995.74,-68.3957"/>
</g>
<!-- 41 -->
<g class="node" id="node82"><title>41</title>
<polygon fill="none" stroke="black" points="2169.15,-58.4014 2064.85,-58.4014 2064.85,0.401379 2169.15,0.401379 2169.15,-58.4014"/>
<text font-family="Times,serif" font-size="14px" text-anchor="middle" x="2117" y="-41.6">gini = 0.48</text>
<text font-family="Times,serif" font-size="14px" text-anchor="middle" x="2117" y="-24.8">samples = 60</text>
<text font-family="Times,serif" font-size="14px" text-anchor="middle" x="2117" y="-8">value = [24, 36]</text>
</g>
<!-- 39&#45;&gt;41 -->
<g class="edge" id="edge82"><title>39-&gt;41</title>
<path fill="none" stroke="black" d="M 2036.85 -94.251 C 2048.85 -84.6272 2061.76 -74.2822 2073.63 -64.7654"/>
<polygon fill="black" stroke="black" points="2076.05,-67.3138 2081.66,-58.3283 2071.67,-61.8519 2076.05,-67.3138"/>
</g>
<!-- 43 -->
<g class="node" id="node86"><title>43</title>
<polygon fill="none" stroke="black" points="2217.29,-281.7 2104.71,-281.7 2104.71,-206.3 2217.29,-206.3 2217.29,-281.7"/>
<text font-family="Times,serif" font-size="14px" text-anchor="middle" x="2161" y="-265">glucose &lt;= 123.5</text>
<text font-family="Times,serif" font-size="14px" text-anchor="middle" x="2161" y="-248.2">gini = 0.153</text>
<text font-family="Times,serif" font-size="14px" text-anchor="middle" x="2161" y="-231.4">samples = 12</text>
<text font-family="Times,serif" font-size="14px" text-anchor="middle" x="2161" y="-214.6">value = [1, 11]</text>
</g>
<!-- 42&#45;&gt;43 -->
<g class="edge" id="edge86"><title>42-&gt;43</title>
<path fill="none" stroke="black" d="M 2161 -318.372 C 2161 -309.927 2161 -300.829 2161 -292.011"/>
<polygon fill="black" stroke="black" points="2164.5,-291.843 2161,-281.844 2157.5,-291.844 2164.5,-291.843"/>
</g>
<!-- 46 -->
<g class="node" id="node92"><title>46</title>
<polygon fill="none" stroke="black" points="2393.15,-281.7 2288.85,-281.7 2288.85,-206.3 2393.15,-206.3 2393.15,-281.7"/>
<text font-family="Times,serif" font-size="14px" text-anchor="middle" x="2341" y="-265">male &lt;= 0.5</text>
<text font-family="Times,serif" font-size="14px" text-anchor="middle" x="2341" y="-248.2">gini = 0.499</text>
<text font-family="Times,serif" font-size="14px" text-anchor="middle" x="2341" y="-231.4">samples = 40</text>
<text font-family="Times,serif" font-size="14px" text-anchor="middle" x="2341" y="-214.6">value = [19, 21]</text>
</g>
<!-- 42&#45;&gt;46 -->
<g class="edge" id="edge92"><title>42-&gt;46</title>
<path fill="none" stroke="black" d="M 2213.55 -322.888 C 2234.34 -310.18 2258.38 -295.489 2279.94 -282.313"/>
<polygon fill="black" stroke="black" points="2281.99,-285.163 2288.7,-276.962 2278.34,-279.19 2281.99,-285.163"/>
</g>
<!-- 44 -->
<g class="node" id="node88"><title>44</title>
<polygon fill="none" stroke="black" points="2153.15,-161.401 2062.85,-161.401 2062.85,-102.599 2153.15,-102.599 2153.15,-161.401"/>
<text font-family="Times,serif" font-size="14px" text-anchor="middle" x="2108" y="-144.6">gini = 0.0</text>
<text font-family="Times,serif" font-size="14px" text-anchor="middle" x="2108" y="-127.8">samples = 1</text>
<text font-family="Times,serif" font-size="14px" text-anchor="middle" x="2108" y="-111">value = [1, 0]</text>
</g>
<!-- 43&#45;&gt;44 -->
<g class="edge" id="edge88"><title>43-&gt;44</title>
<path fill="none" stroke="black" d="M 2143.35 -206.372 C 2137.85 -194.946 2131.77 -182.326 2126.22 -170.82"/>
<polygon fill="black" stroke="black" points="2129.21,-168.958 2121.72,-161.469 2122.9,-171.997 2129.21,-168.958"/>
</g>
<!-- 45 -->
<g class="node" id="node90"><title>45</title>
<polygon fill="none" stroke="black" points="2269.9,-161.401 2172.1,-161.401 2172.1,-102.599 2269.9,-102.599 2269.9,-161.401"/>
<text font-family="Times,serif" font-size="14px" text-anchor="middle" x="2221" y="-144.6">gini = 0.0</text>
<text font-family="Times,serif" font-size="14px" text-anchor="middle" x="2221" y="-127.8">samples = 11</text>
<text font-family="Times,serif" font-size="14px" text-anchor="middle" x="2221" y="-111">value = [0, 11]</text>
</g>
<!-- 43&#45;&gt;45 -->
<g class="edge" id="edge90"><title>43-&gt;45</title>
<path fill="none" stroke="black" d="M 2180.98 -206.372 C 2187.27 -194.832 2194.23 -182.073 2200.56 -170.475"/>
<polygon fill="black" stroke="black" points="2203.76,-171.924 2205.47,-161.469 2197.61,-168.572 2203.76,-171.924"/>
</g>
<!-- 47 -->
<g class="node" id="node94"><title>47</title>
<polygon fill="none" stroke="black" points="2393.47,-169.7 2288.53,-169.7 2288.53,-94.2997 2393.47,-94.2997 2393.47,-169.7"/>
<text font-family="Times,serif" font-size="14px" text-anchor="middle" x="2341" y="-153">sysBP &lt;= 197.5</text>
<text font-family="Times,serif" font-size="14px" text-anchor="middle" x="2341" y="-136.2">gini = 0.469</text>
<text font-family="Times,serif" font-size="14px" text-anchor="middle" x="2341" y="-119.4">samples = 24</text>
<text font-family="Times,serif" font-size="14px" text-anchor="middle" x="2341" y="-102.6">value = [15, 9]</text>
</g>
<!-- 46&#45;&gt;47 -->
<g class="edge" id="edge94"><title>46-&gt;47</title>
<path fill="none" stroke="black" d="M 2341 -206.372 C 2341 -197.927 2341 -188.829 2341 -180.011"/>
<polygon fill="black" stroke="black" points="2344.5,-179.843 2341,-169.844 2337.5,-179.844 2344.5,-179.843"/>
</g>
<!-- 50 -->
<g class="node" id="node100"><title>50</title>
<polygon fill="none" stroke="black" points="2524.29,-169.7 2411.71,-169.7 2411.71,-94.2997 2524.29,-94.2997 2524.29,-169.7"/>
<text font-family="Times,serif" font-size="14px" text-anchor="middle" x="2468" y="-153">glucose &lt;= 160.0</text>
<text font-family="Times,serif" font-size="14px" text-anchor="middle" x="2468" y="-136.2">gini = 0.375</text>
<text font-family="Times,serif" font-size="14px" text-anchor="middle" x="2468" y="-119.4">samples = 16</text>
<text font-family="Times,serif" font-size="14px" text-anchor="middle" x="2468" y="-102.6">value = [4, 12]</text>
</g>
<!-- 46&#45;&gt;50 -->
<g class="edge" id="edge100"><title>46-&gt;50</title>
<path fill="none" stroke="black" d="M 2383.29 -206.372 C 2394.31 -196.825 2406.3 -186.444 2417.69 -176.576"/>
<polygon fill="black" stroke="black" points="2420.2,-179.036 2425.46,-169.844 2415.61,-173.745 2420.2,-179.036"/>
</g>
<!-- 48 -->
<g class="node" id="node96"><title>48</title>
<polygon fill="none" stroke="black" points="2290.9,-58.4014 2193.1,-58.4014 2193.1,0.401379 2290.9,0.401379 2290.9,-58.4014"/>
<text font-family="Times,serif" font-size="14px" text-anchor="middle" x="2242" y="-41.6">gini = 0.408</text>
<text font-family="Times,serif" font-size="14px" text-anchor="middle" x="2242" y="-24.8">samples = 21</text>
<text font-family="Times,serif" font-size="14px" text-anchor="middle" x="2242" y="-8">value = [15, 6]</text>
</g>
<!-- 47&#45;&gt;48 -->
<g class="edge" id="edge96"><title>47-&gt;48</title>
<path fill="none" stroke="black" d="M 2304.98 -94.251 C 2295.82 -84.9048 2285.99 -74.8784 2276.89 -65.591"/>
<polygon fill="black" stroke="black" points="2279.27,-63.0197 2269.77,-58.3283 2274.27,-67.9198 2279.27,-63.0197"/>
</g>
<!-- 49 -->
<g class="node" id="node98"><title>49</title>
<polygon fill="none" stroke="black" points="2400.15,-58.4014 2309.85,-58.4014 2309.85,0.401379 2400.15,0.401379 2400.15,-58.4014"/>
<text font-family="Times,serif" font-size="14px" text-anchor="middle" x="2355" y="-41.6">gini = 0.0</text>
<text font-family="Times,serif" font-size="14px" text-anchor="middle" x="2355" y="-24.8">samples = 3</text>
<text font-family="Times,serif" font-size="14px" text-anchor="middle" x="2355" y="-8">value = [0, 3]</text>
</g>
<!-- 47&#45;&gt;49 -->
<g class="edge" id="edge98"><title>47-&gt;49</title>
<path fill="none" stroke="black" d="M 2346.09 -94.251 C 2347.26 -85.8302 2348.5 -76.8572 2349.68 -68.37"/>
<polygon fill="black" stroke="black" points="2353.17,-68.7142 2351.07,-58.3283 2346.23,-67.753 2353.17,-68.7142"/>
</g>
<!-- 51 -->
<g class="node" id="node102"><title>51</title>
<polygon fill="none" stroke="black" points="2512.15,-58.4014 2421.85,-58.4014 2421.85,0.401379 2512.15,0.401379 2512.15,-58.4014"/>
<text font-family="Times,serif" font-size="14px" text-anchor="middle" x="2467" y="-41.6">gini = 0.0</text>
<text font-family="Times,serif" font-size="14px" text-anchor="middle" x="2467" y="-24.8">samples = 7</text>
<text font-family="Times,serif" font-size="14px" text-anchor="middle" x="2467" y="-8">value = [0, 7]</text>
</g>
<!-- 50&#45;&gt;51 -->
<g class="edge" id="edge102"><title>50-&gt;51</title>
<path fill="none" stroke="black" d="M 2467.64 -94.251 C 2467.55 -85.8302 2467.46 -76.8572 2467.38 -68.37"/>
<polygon fill="black" stroke="black" points="2470.88,-68.2931 2467.28,-58.3283 2463.88,-68.3625 2470.88,-68.2931"/>
</g>
<!-- 52 -->
<g class="node" id="node104"><title>52</title>
<polygon fill="none" stroke="black" points="2622.15,-58.4014 2531.85,-58.4014 2531.85,0.401379 2622.15,0.401379 2622.15,-58.4014"/>
<text font-family="Times,serif" font-size="14px" text-anchor="middle" x="2577" y="-41.6">gini = 0.494</text>
<text font-family="Times,serif" font-size="14px" text-anchor="middle" x="2577" y="-24.8">samples = 9</text>
<text font-family="Times,serif" font-size="14px" text-anchor="middle" x="2577" y="-8">value = [4, 5]</text>
</g>
<!-- 50&#45;&gt;52 -->
<g class="edge" id="edge104"><title>50-&gt;52</title>
<path fill="none" stroke="black" d="M 2507.66 -94.251 C 2517.85 -84.8123 2528.78 -74.6798 2538.89 -65.3154"/>
<polygon fill="black" stroke="black" points="2541.47,-67.6924 2546.43,-58.3283 2536.71,-62.5578 2541.47,-67.6924"/>
</g>
</g>
</svg>